<svg width="40" height="40" viewBox="0 0 40 40" fill="none" xmlns="http://www.w3.org/2000/svg">
<circle cx="20" cy="20" r="20" fill="white"/>
<path d="M27.4558 16.921C27.4474 16.2899 27.3293 15.665 27.1067 15.0744C26.9136 14.5762 26.6188 14.1237 26.241 13.7459C25.8632 13.3681 25.4107 13.0733 24.9125 12.8802C24.3294 12.6613 23.7135 12.543 23.0908 12.5302C22.2892 12.4944 22.035 12.4844 20 12.4844C17.965 12.4844 17.7042 12.4844 16.9083 12.5302C16.286 12.5431 15.6703 12.6614 15.0875 12.8802C14.5892 13.0731 14.1367 13.3679 13.7589 13.7457C13.381 14.1236 13.0862 14.5761 12.8933 15.0744C12.674 15.657 12.5559 16.2728 12.5442 16.8952C12.5083 17.6977 12.4975 17.9519 12.4975 19.9869C12.4975 22.0219 12.4975 22.2819 12.5442 23.0785C12.5567 23.7019 12.6742 24.3169 12.8933 24.901C13.0866 25.3992 13.3816 25.8515 13.7595 26.2292C14.1375 26.6068 14.5901 26.9015 15.0883 27.0944C15.6695 27.322 16.2853 27.4489 16.9092 27.4694C17.7117 27.5052 17.9658 27.516 20.0008 27.516C22.0358 27.516 22.2967 27.516 23.0925 27.4694C23.7151 27.4571 24.3311 27.339 24.9142 27.1202C25.4122 26.9269 25.8646 26.632 26.2424 26.2542C26.6201 25.8765 26.9151 25.4241 27.1083 24.926C27.3275 24.3427 27.445 23.7277 27.4575 23.1035C27.4933 22.3019 27.5042 22.0477 27.5042 20.0119C27.5025 17.9769 27.5025 17.7185 27.4558 16.921ZM19.995 23.8352C17.8667 23.8352 16.1425 22.111 16.1425 19.9827C16.1425 17.8544 17.8667 16.1302 19.995 16.1302C21.0167 16.1302 21.9966 16.5361 22.7191 17.2586C23.4416 17.9811 23.8475 18.961 23.8475 19.9827C23.8475 21.0045 23.4416 21.9844 22.7191 22.7068C21.9966 23.4293 21.0167 23.8352 19.995 23.8352ZM24.0008 16.886C23.8828 16.8862 23.766 16.863 23.6569 16.8179C23.5479 16.7728 23.4488 16.7066 23.3654 16.6232C23.2819 16.5397 23.2158 16.4407 23.1707 16.3316C23.1255 16.2226 23.1024 16.1057 23.1025 15.9877C23.1025 15.8698 23.1257 15.753 23.1708 15.6441C23.216 15.5352 23.2821 15.4362 23.3655 15.3528C23.4489 15.2694 23.5479 15.2033 23.6568 15.1581C23.7657 15.113 23.8825 15.0898 24.0004 15.0898C24.1183 15.0898 24.2351 15.113 24.344 15.1581C24.453 15.2033 24.552 15.2694 24.6353 15.3528C24.7187 15.4362 24.7849 15.5352 24.83 15.6441C24.8751 15.753 24.8983 15.8698 24.8983 15.9877C24.8983 16.4844 24.4967 16.886 24.0008 16.886Z" fill="#0F2D3C"/>
<path d="M19.995 22.485C21.3771 22.485 22.4975 21.3646 22.4975 19.9825C22.4975 18.6004 21.3771 17.48 19.995 17.48C18.6129 17.48 17.4925 18.6004 17.4925 19.9825C17.4925 21.3646 18.6129 22.485 19.995 22.485Z" fill="#0F2D3C"/>
</svg>
