<svg width="22" height="22" viewBox="0 0 22 22" fill="none" xmlns="http://www.w3.org/2000/svg">
<path d="M20.1666 7.8905V15.354C20.1667 16.115 19.8756 16.8471 19.3529 17.4002C18.8303 17.9533 18.1159 18.2855 17.3561 18.3286L17.1875 18.3332H4.81248C4.05152 18.3332 3.31939 18.0421 2.76627 17.5195C2.21315 16.9969 1.88098 16.2824 1.8379 15.5227L1.83331 15.354V7.8905L10.681 12.5252C10.7794 12.5767 10.8889 12.6037 11 12.6037C11.1111 12.6037 11.2206 12.5767 11.319 12.5252L20.1666 7.8905ZM4.81248 3.6665H17.1875C17.9259 3.66641 18.6381 3.94058 19.1859 4.43583C19.7336 4.93108 20.0779 5.61211 20.152 6.34684L11 11.141L1.84798 6.34684C1.91904 5.64129 2.23944 4.98423 2.75158 4.49376C3.26373 4.0033 3.93402 3.71159 4.64198 3.67109L4.81248 3.6665H17.1875H4.81248Z" fill="white"/>
</svg>
