<svg width="18" height="18" viewBox="0 0 18 18" fill="none" xmlns="http://www.w3.org/2000/svg">
<path d="M17.0266 2.9457L14.7385 0.659766C14.5771 0.497652 14.3852 0.369026 14.174 0.281276C13.9627 0.193527 13.7362 0.148383 13.5074 0.148438C13.0412 0.148438 12.6029 0.331055 12.2742 0.659766L9.81211 3.12187C9.65 3.28328 9.52137 3.47512 9.43362 3.68639C9.34587 3.89765 9.30073 4.12417 9.30078 4.35293C9.30078 4.81914 9.4834 5.25742 9.81211 5.58613L11.6125 7.38652C11.1911 8.31542 10.6051 9.16046 9.88301 9.88086C9.16268 10.6048 8.31772 11.1928 7.38867 11.6168L5.58828 9.81641C5.42688 9.65429 5.23504 9.52567 5.02377 9.43792C4.81251 9.35017 4.58599 9.30502 4.35723 9.30508C3.89102 9.30508 3.45274 9.4877 3.12403 9.81641L0.659767 12.2764C0.497454 12.4381 0.368718 12.6303 0.280964 12.8419C0.19321 13.0536 0.148171 13.2805 0.148439 13.5096C0.148439 13.9758 0.331056 14.4141 0.659767 14.7428L2.94356 17.0266C3.46778 17.5529 4.1918 17.8516 4.93516 17.8516C5.09199 17.8516 5.24238 17.8387 5.39063 17.8129C8.28672 17.3359 11.1592 15.7955 13.4773 13.4795C15.7934 11.1656 17.3316 8.29531 17.815 5.39062C17.9611 4.50332 17.6668 3.59023 17.0266 2.9457Z" fill="white"/>
</svg>
